<svg width="14" height="12" viewBox="0 0 14 12" fill="none" xmlns="http://www.w3.org/2000/svg">
<path d="M12.7286 1.02862C12.0726 0.373941 11.1839 0.00584374 10.2571 0.00490664C9.33036 0.00396954 8.44095 0.370269 7.78362 1.02362L6.87862 1.86612L5.97362 1.02362C5.31679 0.36762 4.42627 -0.00058536 3.49797 6.98532e-07C2.56966 0.000586757 1.67961 0.369917 1.02362 1.02674C0.36762 1.68357 -0.000585346 2.57408 6.985e-07 3.50239C0.000586743 4.43069 0.369916 5.32075 1.02674 5.97674L6.61174 11.643C6.64663 11.6783 6.68818 11.7064 6.73399 11.7255C6.7798 11.7447 6.82896 11.7545 6.87862 11.7545C6.92827 11.7545 6.97743 11.7447 7.02324 11.7255C7.06906 11.7064 7.11061 11.6783 7.14549 11.643L12.7286 5.97924C13.0538 5.65422 13.3117 5.26833 13.4876 4.84361C13.6636 4.41889 13.7542 3.96366 13.7542 3.50393C13.7542 3.0442 13.6636 2.58897 13.4876 2.16425C13.3117 1.73953 13.0538 1.35364 12.7286 1.02862ZM12.1961 5.45049L6.87862 10.8455L1.55924 5.44862C1.04652 4.9323 0.759323 4.23383 0.760563 3.50618C0.761804 2.77854 1.05138 2.08105 1.56586 1.56648C2.08034 1.05192 2.77779 0.762233 3.50543 0.760876C4.23307 0.759518 4.93159 1.0466 5.44799 1.55924C5.45103 1.56248 5.45438 1.56541 5.45799 1.56799L6.62299 2.65299C6.6924 2.71766 6.78375 2.75362 6.87862 2.75362C6.97349 2.75362 7.06483 2.71766 7.13424 2.65299L8.29924 1.56737C8.30286 1.56479 8.30621 1.56186 8.30924 1.55862C8.56442 1.30192 8.86776 1.09813 9.20187 0.958917C9.53598 0.819708 9.89429 0.747825 10.2562 0.747391C10.6182 0.746956 10.9767 0.817978 11.3111 0.956384C11.6456 1.09479 11.9494 1.29786 12.2052 1.55394C12.461 1.81002 12.6637 2.11408 12.8017 2.44868C12.9398 2.78328 13.0104 3.14183 13.0095 3.50378C13.0087 3.86573 12.9364 4.22396 12.7968 4.55791C12.6572 4.89186 12.4531 5.19498 12.1961 5.44987V5.45049Z" fill="black"/>
</svg>
