<svg width="24" height="22" viewBox="0 0 24 22" fill="none" xmlns="http://www.w3.org/2000/svg">
<path d="M21.7461 9.29841H20.5785C20.5119 9.05765 20.3688 8.84508 20.1708 8.69286C19.9728 8.54063 19.7306 8.45702 19.4808 8.45466H18.2344V5.40666C18.2358 5.34965 18.222 5.29328 18.1944 5.24335C18.1669 5.19341 18.1265 5.15171 18.0775 5.12251L9.28486 0.0439772C9.2353 0.015173 9.17901 0 9.12169 0C9.06437 0 9.00807 0.015173 8.95852 0.0439772L0.163127 5.12251C0.11336 5.15136 0.0720772 5.19281 0.0434386 5.2427C0.0148 5.29259 -0.000182326 5.34914 1.67458e-06 5.40666V15.5638C3.13776e-06 15.6214 0.0151652 15.678 0.0439642 15.7278C0.0727631 15.7777 0.114184 15.8191 0.164064 15.8479L8.96035 20.9265C9.01023 20.9553 9.06681 20.9704 9.12441 20.9704C9.18349 20.9705 9.2416 20.9553 9.29316 20.9265L13.9219 18.2566V20.1866C13.9214 20.3704 13.9574 20.5524 14.0277 20.7222C14.0981 20.8919 14.2014 21.046 14.3317 21.1756C14.462 21.3052 14.6167 21.4076 14.7869 21.4769C14.957 21.5463 15.1393 21.5812 15.323 21.5797H21.7461C21.9303 21.5814 22.113 21.5466 22.2838 21.4775C22.4545 21.4083 22.6099 21.306 22.741 21.1765C22.872 21.0471 22.9762 20.8929 23.0475 20.7231C23.1187 20.5532 23.1557 20.3709 23.1563 20.1866V10.7132C23.156 10.3388 23.0075 9.9798 22.7433 9.71466C22.479 9.44952 22.1204 9.29985 21.7461 9.29841ZM19.4925 9.11091C19.6188 9.11092 19.7399 9.1611 19.8292 9.25042C19.9186 9.33974 19.9688 9.46089 19.9688 9.58721V9.61899C19.9688 9.74531 19.9186 9.86646 19.8292 9.95579C19.7399 10.0451 19.6188 10.0953 19.4925 10.0953H17.5857C17.4594 10.0953 17.3382 10.0451 17.2489 9.95579C17.1596 9.86646 17.1094 9.74531 17.1094 9.61899V9.58721C17.1094 9.46089 17.1596 9.33974 17.2489 9.25042C17.3382 9.1611 17.4594 9.11091 17.5857 9.11091H19.4925ZM9.12441 0.707024L12.7794 2.81724L4.63997 7.51656L0.984986 5.40634L9.12441 0.707024ZM8.8125 20.0739L0.656252 15.3743V5.97427L8.8125 10.6739V20.0739ZM9.12441 10.1056L5.29622 7.8954L13.4357 3.19613L17.2641 5.40634L9.12441 10.1056ZM13.9219 10.7132V17.4989L9.46875 20.0739V10.6739L17.5781 5.97427V8.45466H17.5883C17.3385 8.45701 17.0963 8.54062 16.8983 8.69285C16.7002 8.84507 16.5571 9.05764 16.4906 9.29841H15.323C14.9496 9.30023 14.5922 9.4503 14.3294 9.71562C14.0667 9.98094 13.9201 10.3398 13.9219 10.7132ZM22.5 20.1866C22.4996 20.2847 22.4796 20.3817 22.4414 20.472C22.4031 20.5623 22.3473 20.6442 22.2771 20.7127C22.207 20.7813 22.1239 20.8352 22.0327 20.8714C21.9416 20.9075 21.8441 20.9252 21.7461 20.9234H15.323C15.2254 20.9251 15.1285 20.9072 15.0379 20.8708C14.9473 20.8345 14.8649 20.7804 14.7955 20.7118C14.7261 20.6431 14.6711 20.5613 14.6338 20.4712C14.5965 20.381 14.5776 20.2842 14.5781 20.1866V10.7132C14.5771 10.6145 14.5956 10.5165 14.6325 10.4249C14.6695 10.3333 14.7241 10.2499 14.7933 10.1795C14.8625 10.109 14.9449 10.0529 15.0358 10.0143C15.1267 9.97573 15.2243 9.95547 15.323 9.95466H16.5034C16.5738 10.1869 16.7176 10.3901 16.9131 10.5338C17.1087 10.6775 17.3456 10.7539 17.5883 10.7515H19.4808C19.7235 10.7539 19.9603 10.6775 20.1559 10.5338C20.3515 10.3901 20.4953 10.1869 20.5656 9.95466H21.7461C21.9464 9.95593 22.1382 10.0364 22.2794 10.1785C22.4207 10.3206 22.5 10.5128 22.5 10.7132V20.1866Z" fill="#E5A324"/>
</svg>
