<svg width="62" height="58" viewBox="0 0 62 58" fill="none" xmlns="http://www.w3.org/2000/svg">
<path d="M58.2243 24.8962H55.098C54.92 24.2515 54.5368 23.6824 54.0066 23.2748C53.4764 22.8672 52.8278 22.6434 52.1591 22.637H48.8219V14.4761C48.8256 14.3235 48.7887 14.1726 48.7149 14.0389C48.6411 13.9052 48.5331 13.7935 48.4019 13.7153L24.8599 0.117747C24.7272 0.0406252 24.5765 0 24.423 0C24.2695 0 24.1188 0.0406252 23.9861 0.117747L0.436766 13.7153C0.303518 13.7926 0.192984 13.9036 0.116305 14.0371C0.0396265 14.1707 -0.000488171 14.3221 4.48362e-06 14.4761V41.6714C8.40124e-06 41.8256 0.0406044 41.9771 0.117712 42.1107C0.19482 42.2442 0.305724 42.3551 0.439276 42.4322L23.991 56.0298C24.1245 56.1069 24.276 56.1475 24.4303 56.1475C24.5885 56.1476 24.744 56.1071 24.8821 56.0298L37.2753 48.8814V54.049C37.274 54.541 37.3704 55.0283 37.5587 55.4828C37.747 55.9373 38.0237 56.35 38.3726 56.6969C38.7215 57.0437 39.1357 57.318 39.5913 57.5037C40.0469 57.6894 40.5348 57.7829 41.0268 57.7787H58.2243C58.7175 57.7833 59.2068 57.6903 59.664 57.5051C60.1211 57.3198 60.5372 57.046 60.8881 56.6993C61.239 56.3527 61.5179 55.9401 61.7087 55.4852C61.8996 55.0303 61.9986 54.5422 62 54.049V28.6842C61.9994 27.6818 61.6018 26.7206 60.8942 26.0106C60.1866 25.3007 59.2266 24.9 58.2243 24.8962ZM52.1903 24.3941C52.5285 24.3941 52.8529 24.5285 53.0921 24.7677C53.3312 25.0068 53.4656 25.3312 53.4656 25.6694V25.7545C53.4656 26.0927 53.3312 26.4171 53.0921 26.6562C52.8529 26.8954 52.5285 27.0298 52.1903 27.0298H47.085C46.7468 27.0298 46.4224 26.8954 46.1832 26.6562C45.9441 26.4171 45.8097 26.0927 45.8097 25.7545V25.6694C45.8097 25.3312 45.9441 25.0068 46.1832 24.7677C46.4224 24.5285 46.7468 24.3941 47.085 24.3941H52.1903ZM24.4303 1.89303L34.2165 7.54306L12.4233 20.1253L2.63726 14.4753L24.4303 1.89303ZM23.5951 53.7472L1.75709 41.1641V15.9959L23.5951 28.579V53.7472ZM24.4303 27.0574L14.1804 21.1396L35.9736 8.55753L46.2239 14.4753L24.4303 27.0574ZM37.2753 28.6842V46.8526L25.3522 53.7472V28.579L47.0648 15.9959V22.637H47.092C46.4233 22.6433 45.7747 22.8672 45.2445 23.2748C44.7142 23.6824 44.3311 24.2515 44.153 24.8962H41.0268C40.027 24.901 39.0701 25.3028 38.3665 26.0132C37.663 26.7236 37.2705 27.6844 37.2753 28.6842ZM60.2429 54.049C60.2417 54.3116 60.1883 54.5713 60.0859 54.8131C59.9835 55.0549 59.834 55.2739 59.6462 55.4575C59.4584 55.641 59.2359 55.7854 58.9918 55.8823C58.7477 55.9791 58.4868 56.0265 58.2243 56.0217H41.0268C40.7655 56.0261 40.506 55.9782 40.2634 55.8809C40.0209 55.7836 39.8003 55.6388 39.6145 55.455C39.4287 55.2713 39.2815 55.0522 39.1815 54.8107C39.0815 54.5693 39.0308 54.3103 39.0324 54.049V28.6842C39.0297 28.4198 39.0793 28.1575 39.1781 27.9123C39.2769 27.6671 39.4232 27.4437 39.6084 27.2551C39.7937 27.0665 40.0143 26.9162 40.2577 26.8129C40.5011 26.7097 40.7624 26.6554 41.0268 26.6532H44.1873C44.3757 27.2751 44.7606 27.8192 45.2843 28.2038C45.808 28.5885 46.4423 28.7931 47.092 28.7868H52.1591C52.8088 28.7931 53.4431 28.5885 53.9667 28.2038C54.4904 27.8192 54.8753 27.2751 55.0637 26.6532H58.2243C58.7607 26.6566 59.2741 26.8721 59.6523 27.2526C60.0305 27.6331 60.2428 28.1477 60.2429 28.6842V54.049Z" fill="#E5A324"/>
</svg>
