<svg width="62" height="79" viewBox="0 0 62 79" fill="none" xmlns="http://www.w3.org/2000/svg">
<path d="M54.1091 10.3393H46.9697V7.14544C46.9697 6.1121 45.8425 5.64245 44.8092 5.64245H39.2668C37.9517 1.88487 34.6638 0.00608241 30.9062 0.00608241C27.19 -0.133626 23.8098 2.14505 22.5456 5.64245H17.0972C16.0638 5.64245 15.0305 6.1121 15.0305 7.14544V10.3393H7.89094C3.66012 10.3845 0.198865 13.722 0 17.9483V71.7755C0 75.9088 3.75758 78.9148 7.89094 78.9148H54.1091C58.2424 78.9148 62 75.9088 62 71.7755V17.9485C61.8011 13.722 58.3399 10.3845 54.1091 10.3393ZM18.7879 9.40002H23.9546C24.8565 9.28998 25.5809 8.60384 25.7395 7.70913C26.2958 5.28643 28.4213 3.54735 30.9062 3.4819C33.3681 3.55652 35.4616 5.301 35.9789 7.70913C36.1474 8.63477 36.9196 9.32972 37.8577 9.40002H43.2123V16.9152H18.7879V9.40002ZM58.2424 71.7756C58.2424 73.8423 56.1757 75.1574 54.1091 75.1574H7.89094C5.82426 75.1574 3.75758 73.8423 3.75758 71.7756V17.9485C3.94925 15.7973 5.73148 14.1365 7.89094 14.0971H15.0303V18.888C15.1296 19.9406 16.0412 20.7279 17.097 20.6729H44.809C45.8842 20.7317 46.8244 19.9551 46.9695 18.888V14.0969H54.1089C56.2682 14.1365 58.0506 15.7971 58.2422 17.9483V71.7756H58.2424Z" fill="#E5A324"/>
<path d="M23.7666 41.997C23.062 41.2542 21.8921 41.2123 21.1362 41.9031L15.1241 47.6333L12.5878 45.003C11.8831 44.2602 10.7133 44.2185 9.95738 44.9091C9.2297 45.6715 9.2297 46.871 9.95738 47.6333L13.8088 51.5788C14.1422 51.9521 14.6237 52.1585 15.1239 52.1425C15.6195 52.1355 16.0922 51.9328 16.439 51.5788L23.7663 44.6273C24.4927 43.961 24.5412 42.8318 23.8747 42.1056C23.8405 42.0676 23.8044 42.0315 23.7666 41.997Z" fill="#E5A324"/>
<path d="M50.7274 46.0363H29.1215C28.0838 46.0363 27.2427 46.8774 27.2427 47.9151C27.2427 48.9527 28.0838 49.7938 29.1215 49.7938H50.7274C51.7651 49.7938 52.6062 48.9527 52.6062 47.9151C52.6062 46.8774 51.7651 46.0363 50.7274 46.0363Z" fill="#E5A324"/>
<path d="M23.7666 26.9667C23.062 26.2239 21.8921 26.182 21.1362 26.8728L15.1241 32.603L12.5878 29.9726C11.8831 29.2299 10.7133 29.188 9.95738 29.8788C9.2297 30.6412 9.2297 31.8406 9.95738 32.603L13.8088 36.5485C14.1422 36.9218 14.6237 37.1282 15.1239 37.1122C15.6195 37.1052 16.0922 36.9025 16.439 36.5485L23.7663 29.597C24.4927 28.9307 24.5412 27.8015 23.8747 27.0753C23.8405 27.0373 23.8044 27.0012 23.7666 26.9667Z" fill="#E5A324"/>
<path d="M50.7274 31.006H29.1215C28.0838 31.006 27.2427 31.8471 27.2427 32.8848C27.2427 33.9224 28.0838 34.7636 29.1215 34.7636H50.7274C51.7651 34.7636 52.6062 33.9224 52.6062 32.8848C52.6062 31.8471 51.7651 31.006 50.7274 31.006Z" fill="#E5A324"/>
<path d="M23.7666 57.0271C23.062 56.2843 21.8921 56.2426 21.1362 56.9332L15.1241 62.6634L12.5878 60.0331C11.8831 59.2903 10.7133 59.2486 9.95738 59.9392C9.2297 60.7016 9.2297 61.9011 9.95738 62.6634L13.8088 66.6089C14.1422 66.9822 14.6237 67.1886 15.1239 67.1726C15.6195 67.1656 16.0922 66.9629 16.439 66.6089L23.7663 59.6574C24.4927 58.9911 24.5412 57.8619 23.8747 57.1357C23.8405 57.0979 23.8044 57.0618 23.7666 57.0271Z" fill="#E5A324"/>
<path d="M50.7274 61.0666H29.1215C28.0838 61.0666 27.2427 61.9077 27.2427 62.9454C27.2427 63.983 28.0838 64.8242 29.1215 64.8242H50.7274C51.7651 64.8242 52.6062 63.983 52.6062 62.9454C52.6062 61.9077 51.7651 61.0666 50.7274 61.0666Z" fill="#E5A324"/>
</svg>
